<svg preserveAspectRatio="none" width="100%" height="100%" overflow="visible" style="display: block;" viewBox="0 0 36 36" fill="none" xmlns="http://www.w3.org/2000/svg">
<g id="Icon">
<path id="Vector" d="M6 21C5.71615 21.001 5.43785 20.9214 5.19743 20.7705C4.95701 20.6196 4.76435 20.4035 4.64183 20.1475C4.5193 19.8914 4.47194 19.6059 4.50525 19.324C4.53856 19.0421 4.65117 18.7754 4.83 18.555L19.68 3.255C19.7914 3.12642 19.9432 3.03953 20.1105 3.0086C20.2778 2.97766 20.4506 3.00452 20.6006 3.08476C20.7506 3.16499 20.8689 3.29385 20.936 3.45016C21.0031 3.60648 21.0151 3.78097 20.97 3.945L18.09 12.975C18.0051 13.2023 17.9766 13.4468 18.0069 13.6875C18.0372 13.9282 18.1255 14.158 18.2641 14.3571C18.4028 14.5563 18.5877 14.7188 18.8029 14.8307C19.0182 14.9427 19.2574 15.0008 19.5 15H30C30.2839 14.999 30.5622 15.0786 30.8026 15.2295C31.043 15.3804 31.2357 15.5965 31.3582 15.8525C31.4807 16.1086 31.5281 16.3941 31.4948 16.676C31.4614 16.9579 31.3488 17.2246 31.17 17.445L16.32 32.745C16.2086 32.8736 16.0568 32.9605 15.8895 32.9914C15.7222 33.0223 15.5494 32.9955 15.3994 32.9152C15.2494 32.835 15.1311 32.7062 15.064 32.5498C14.9969 32.3935 14.9849 32.219 15.03 32.055L17.91 23.025C17.9949 22.7977 18.0234 22.5532 17.9931 22.3125C17.9628 22.0718 17.8745 21.842 17.7359 21.6429C17.5972 21.4437 17.4123 21.2812 17.1971 21.1693C16.9818 21.0573 16.7426 20.9992 16.5 21H6Z" stroke="var(--stroke-0, white)" stroke-width="2.625" stroke-linecap="round" stroke-linejoin="round"/>
</g>
</svg>
