<svg preserveAspectRatio="none" width="100%" height="100%" overflow="visible" style="display: block;" viewBox="0 0 36 36" fill="none" xmlns="http://www.w3.org/2000/svg">
<g id="Icon">
<path id="Vector" d="M24.36 11.64L21.654 19.7565C21.5067 20.1984 21.2586 20.5999 20.9292 20.9292C20.5999 21.2586 20.1984 21.5067 19.7565 21.654L11.64 24.36L14.346 16.2435C14.4933 15.8016 14.7414 15.4001 15.0708 15.0708C15.4001 14.7414 15.8016 14.4933 16.2435 14.346L24.36 11.64Z" stroke="var(--stroke-0, white)" stroke-width="2.625" stroke-linecap="round" stroke-linejoin="round"/>
<path id="Vector_2" d="M18 33C26.2843 33 33 26.2843 33 18C33 9.71573 26.2843 3 18 3C9.71573 3 3 9.71573 3 18C3 26.2843 9.71573 33 18 33Z" stroke="var(--stroke-0, white)" stroke-width="2.625" stroke-linecap="round" stroke-linejoin="round"/>
</g>
</svg>
