<svg preserveAspectRatio="none" width="100%" height="100%" overflow="visible" style="display: block;" viewBox="0 0 36 36" fill="none" xmlns="http://www.w3.org/2000/svg">
<g id="Icon">
<path id="Vector" d="M18 10.5V31.5" stroke="var(--stroke-0, white)" stroke-width="2.625" stroke-linecap="round" stroke-linejoin="round"/>
<path id="Vector_2" d="M4.5 27C4.10218 27 3.72064 26.842 3.43934 26.5607C3.15804 26.2794 3 25.8978 3 25.5V6C3 5.60218 3.15804 5.22064 3.43934 4.93934C3.72064 4.65804 4.10218 4.5 4.5 4.5H12C13.5913 4.5 15.1174 5.13214 16.2426 6.25736C17.3679 7.38258 18 8.9087 18 10.5C18 8.9087 18.6321 7.38258 19.7574 6.25736C20.8826 5.13214 22.4087 4.5 24 4.5H31.5C31.8978 4.5 32.2794 4.65804 32.5607 4.93934C32.842 5.22064 33 5.60218 33 6V25.5C33 25.8978 32.842 26.2794 32.5607 26.5607C32.2794 26.842 31.8978 27 31.5 27H22.5C21.3065 27 20.1619 27.4741 19.318 28.318C18.4741 29.1619 18 30.3065 18 31.5C18 30.3065 17.5259 29.1619 16.682 28.318C15.8381 27.4741 14.6935 27 13.5 27H4.5Z" stroke="var(--stroke-0, white)" stroke-width="2.625" stroke-linecap="round" stroke-linejoin="round"/>
</g>
</svg>
