<svg preserveAspectRatio="none" width="100%" height="100%" overflow="visible" style="display: block;" viewBox="0 0 36 36" fill="none" xmlns="http://www.w3.org/2000/svg">
<g id="ComedyMaskIcon">
<path id="Vector" d="M5.4 15.3C5.4 8.1 9.6 4.5 18 4.5C26.4 4.5 30.6 8.1 30.6 15.3C30.6 23.1 26.4 28.8 18 32.4C9.6 28.8 5.4 23.1 5.4 15.3Z" stroke="var(--stroke-0, white)" stroke-width="1.8"/>
<path id="Vector_2" d="M13.5 15.75C14.7426 15.75 15.75 14.7426 15.75 13.5C15.75 12.2574 14.7426 11.25 13.5 11.25C12.2574 11.25 11.25 12.2574 11.25 13.5C11.25 14.7426 12.2574 15.75 13.5 15.75Z" fill="var(--fill-0, white)"/>
<path id="Vector_3" d="M22.5 15.75C23.7426 15.75 24.75 14.7426 24.75 13.5C24.75 12.2574 23.7426 11.25 22.5 11.25C21.2574 11.25 20.25 12.2574 20.25 13.5C20.25 14.7426 21.2574 15.75 22.5 15.75Z" fill="var(--fill-0, white)"/>
<path id="Vector_4" d="M11.7 19.8C13.8 22.8 15.9 24.3 18 24.3C20.1 24.3 22.2 22.8 24.3 19.8" stroke="var(--stroke-0, white)" stroke-width="2.25" stroke-linecap="round"/>
</g>
</svg>
