<svg preserveAspectRatio="none" width="100%" height="100%" overflow="visible" style="display: block;" viewBox="0 0 36 36" fill="none" xmlns="http://www.w3.org/2000/svg">
<g id="Icon">
<path id="Vector" d="M18 15C17.2044 15 16.4413 15.3161 15.8787 15.8787C15.3161 16.4413 15 17.2044 15 18C15 19.53 14.85 21.765 14.61 24" stroke="var(--stroke-0, white)" stroke-width="2.625" stroke-linecap="round" stroke-linejoin="round"/>
<path id="Vector_2" d="M21 19.68C21 23.25 21 29.25 19.5 33" stroke="var(--stroke-0, white)" stroke-width="2.625" stroke-linecap="round" stroke-linejoin="round"/>
<path id="Vector_3" d="M25.935 31.53C26.115 30.63 26.58 28.08 26.685 27" stroke="var(--stroke-0, white)" stroke-width="2.625" stroke-linecap="round" stroke-linejoin="round"/>
<path id="Vector_4" d="M3 18C3 14.8518 3.99056 11.7833 5.83137 9.22935C7.67217 6.67536 10.2699 4.76531 13.2566 3.76975C16.2433 2.77419 19.4675 2.74359 22.4725 3.6823C25.4775 4.621 28.1111 6.48141 30 9" stroke="var(--stroke-0, white)" stroke-width="2.625" stroke-linecap="round" stroke-linejoin="round"/>
<path id="Vector_5" d="M3 24H3.015" stroke="var(--stroke-0, white)" stroke-width="2.625" stroke-linecap="round" stroke-linejoin="round"/>
<path id="Vector_6" d="M32.7 24C33 21 32.8965 15.969 32.7 15" stroke="var(--stroke-0, white)" stroke-width="2.625" stroke-linecap="round" stroke-linejoin="round"/>
<path id="Vector_7" d="M7.5 29.25C8.25 27 9 22.5 9 18C8.99848 16.9783 9.17095 15.9638 9.51 15" stroke="var(--stroke-0, white)" stroke-width="2.625" stroke-linecap="round" stroke-linejoin="round"/>
<path id="Vector_8" d="M12.975 33C13.29 32.01 13.65 31.02 13.83 30" stroke="var(--stroke-0, white)" stroke-width="2.625" stroke-linecap="round" stroke-linejoin="round"/>
<path id="Vector_9" d="M13.5 10.2C14.8686 9.40984 16.4211 8.99398 18.0014 8.99423C19.5818 8.99448 21.1342 9.41084 22.5025 10.2014C23.8708 10.992 25.0069 12.129 25.7964 13.498C26.5859 14.867 27.001 16.4197 27 18V21" stroke="var(--stroke-0, white)" stroke-width="2.625" stroke-linecap="round" stroke-linejoin="round"/>
</g>
</svg>
