<svg preserveAspectRatio="none" width="100%" height="100%" overflow="visible" style="display: block;" viewBox="0 0 36 36" fill="none" xmlns="http://www.w3.org/2000/svg">
<g id="Icon">
<path id="Vector" d="M21.75 6H14.25L10.5 10.5H6C5.20435 10.5 4.44129 10.8161 3.87868 11.3787C3.31607 11.9413 3 12.7044 3 13.5V27C3 27.7956 3.31607 28.5587 3.87868 29.1213C4.44129 29.6839 5.20435 30 6 30H30C30.7956 30 31.5587 29.6839 32.1213 29.1213C32.6839 28.5587 33 27.7956 33 27V13.5C33 12.7044 32.6839 11.9413 32.1213 11.3787C31.5587 10.8161 30.7956 10.5 30 10.5H25.5L21.75 6Z" stroke="var(--stroke-0, white)" stroke-width="2.625" stroke-linecap="round" stroke-linejoin="round"/>
<path id="Vector_2" d="M18 24C20.4853 24 22.5 21.9853 22.5 19.5C22.5 17.0147 20.4853 15 18 15C15.5147 15 13.5 17.0147 13.5 19.5C13.5 21.9853 15.5147 24 18 24Z" stroke="var(--stroke-0, white)" stroke-width="2.625" stroke-linecap="round" stroke-linejoin="round"/>
</g>
</svg>
