<svg preserveAspectRatio="none" width="100%" height="100%" overflow="visible" style="display: block;" viewBox="0 0 36 36" fill="none" xmlns="http://www.w3.org/2000/svg">
<g id="DramaMaskIcon">
<path id="Vector" d="M5.4 18C5.4 10.2 9.6 6.3 18 6.3C26.4 6.3 30.6 10.2 30.6 18C30.6 26.4 26.4 31.8 18 34.2C9.6 31.8 5.4 26.4 5.4 18Z" stroke="var(--stroke-0, white)" stroke-width="1.8"/>
<path id="Vector_2" d="M13.5 18.45C14.7426 18.45 15.75 17.4426 15.75 16.2C15.75 14.9574 14.7426 13.95 13.5 13.95C12.2574 13.95 11.25 14.9574 11.25 16.2C11.25 17.4426 12.2574 18.45 13.5 18.45Z" fill="var(--fill-0, white)"/>
<path id="Vector_3" d="M22.5 18.45C23.7426 18.45 24.75 17.4426 24.75 16.2C24.75 14.9574 23.7426 13.95 22.5 13.95C21.2574 13.95 20.25 14.9574 20.25 16.2C20.25 17.4426 21.2574 18.45 22.5 18.45Z" fill="var(--fill-0, white)"/>
<path id="Vector_4" d="M11.7 25.2C13.8 22.2 15.9 20.7 18 20.7C20.1 20.7 22.2 22.2 24.3 25.2" stroke="var(--stroke-0, white)" stroke-width="2.25" stroke-linecap="round"/>
</g>
</svg>
