<svg preserveAspectRatio="none" width="100%" height="100%" overflow="visible" style="display: block;" viewBox="0 0 36 36" fill="none" xmlns="http://www.w3.org/2000/svg">
<g id="Icon">
<path id="Vector" d="M30.54 3.54L32.46 5.46C32.6324 5.62773 32.7694 5.8283 32.8629 6.04987C32.9565 6.27143 33.0047 6.5095 33.0047 6.75C33.0047 6.9905 32.9565 7.22857 32.8629 7.45013C32.7694 7.6717 32.6324 7.87227 32.46 8.04L8.04 32.46C7.87227 32.6324 7.6717 32.7694 7.45013 32.8629C7.22857 32.9565 6.9905 33.0047 6.75 33.0047C6.5095 33.0047 6.27143 32.9565 6.04987 32.8629C5.8283 32.7694 5.62773 32.6324 5.46 32.46L3.54 30.54C3.36947 30.3712 3.2341 30.1703 3.14172 29.9489C3.04933 29.7275 3.00176 29.4899 3.00176 29.25C3.00176 29.0101 3.04933 28.7725 3.14172 28.5511C3.2341 28.3297 3.36947 28.1288 3.54 27.96L27.96 3.54C28.1288 3.36947 28.3297 3.2341 28.5511 3.14172C28.7725 3.04933 29.0101 3.00176 29.25 3.00176C29.4899 3.00176 29.7275 3.04933 29.9489 3.14172C30.1703 3.2341 30.3712 3.36947 30.54 3.54Z" stroke="var(--stroke-0, white)" stroke-width="2.625" stroke-linecap="round" stroke-linejoin="round"/>
<path id="Vector_2" d="M21 10.5L25.5 15" stroke="var(--stroke-0, white)" stroke-width="2.625" stroke-linecap="round" stroke-linejoin="round"/>
<path id="Vector_3" d="M7.5 9V15" stroke="var(--stroke-0, white)" stroke-width="2.625" stroke-linecap="round" stroke-linejoin="round"/>
<path id="Vector_4" d="M28.5 21V27" stroke="var(--stroke-0, white)" stroke-width="2.625" stroke-linecap="round" stroke-linejoin="round"/>
<path id="Vector_5" d="M15 3V6" stroke="var(--stroke-0, white)" stroke-width="2.625" stroke-linecap="round" stroke-linejoin="round"/>
<path id="Vector_6" d="M10.5 12H4.5" stroke="var(--stroke-0, white)" stroke-width="2.625" stroke-linecap="round" stroke-linejoin="round"/>
<path id="Vector_7" d="M31.5 24H25.5" stroke="var(--stroke-0, white)" stroke-width="2.625" stroke-linecap="round" stroke-linejoin="round"/>
<path id="Vector_8" d="M16.5 4.5H13.5" stroke="var(--stroke-0, white)" stroke-width="2.625" stroke-linecap="round" stroke-linejoin="round"/>
</g>
</svg>
