<svg preserveAspectRatio="none" width="100%" height="100%" overflow="visible" style="display: block;" viewBox="0 0 36 36" fill="none" xmlns="http://www.w3.org/2000/svg">
<g id="Icon">
<path id="Vector" d="M18.75 25.5L18 24L17.25 25.5H18.75Z" stroke="var(--stroke-0, white)" stroke-width="2.625" stroke-linecap="round" stroke-linejoin="round"/>
<path id="Vector_2" d="M22.5 33C22.8978 33 23.2794 32.842 23.5607 32.5607C23.842 32.2794 24 31.8978 24 31.5V30C24.565 29.9996 25.1185 29.8397 25.5966 29.5387C26.0748 29.2376 26.4582 28.8076 26.7027 28.2982C26.9472 27.7888 27.0429 27.2207 26.9787 26.6593C26.9146 26.0979 26.6931 25.5661 26.34 25.125C28.059 23.4634 29.2424 21.3263 29.7387 18.9876C30.2349 16.649 30.0212 14.2154 29.1251 11.999C28.229 9.78253 26.6913 7.88428 24.7091 6.54764C22.727 5.21099 20.3907 4.49688 18 4.49688C15.6093 4.49688 13.273 5.21099 11.2909 6.54764C9.3087 7.88428 7.77097 9.78253 6.87486 11.999C5.97875 14.2154 5.76511 16.649 6.26134 18.9876C6.75757 21.3263 7.94104 23.4634 9.66 25.125C9.30685 25.5661 9.08545 26.0979 9.02128 26.6593C8.95711 27.2207 9.05279 27.7888 9.2973 28.2982C9.54181 28.8076 9.92521 29.2376 10.4034 29.5387C10.8815 29.8397 11.435 29.9996 12 30V31.5C12 31.8978 12.158 32.2794 12.4393 32.5607C12.7206 32.842 13.1022 33 13.5 33H22.5Z" stroke="var(--stroke-0, white)" stroke-width="2.625" stroke-linecap="round" stroke-linejoin="round"/>
<path id="Vector_3" d="M22.5 19.5C23.3284 19.5 24 18.8284 24 18C24 17.1716 23.3284 16.5 22.5 16.5C21.6716 16.5 21 17.1716 21 18C21 18.8284 21.6716 19.5 22.5 19.5Z" stroke="var(--stroke-0, white)" stroke-width="2.625" stroke-linecap="round" stroke-linejoin="round"/>
<path id="Vector_4" d="M13.5 19.5C14.3284 19.5 15 18.8284 15 18C15 17.1716 14.3284 16.5 13.5 16.5C12.6716 16.5 12 17.1716 12 18C12 18.8284 12.6716 19.5 13.5 19.5Z" stroke="var(--stroke-0, white)" stroke-width="2.625" stroke-linecap="round" stroke-linejoin="round"/>
</g>
</svg>
