<svg preserveAspectRatio="none" width="100%" height="100%" overflow="visible" style="display: block;" viewBox="0 0 36 36" fill="none" xmlns="http://www.w3.org/2000/svg">
<g id="SuspenseIcon">
<path id="Vector" d="M3.6 18C8.4 10.8 13.2 7.2 18 7.2C22.8 7.2 27.6 10.8 32.4 18C27.6 25.2 22.8 28.8 18 28.8C13.2 28.8 8.4 25.2 3.6 18Z" stroke="var(--stroke-0, white)" stroke-width="1.8"/>
<path id="Vector_2" d="M18 23.4C20.9823 23.4 23.4 20.9823 23.4 18C23.4 15.0177 20.9823 12.6 18 12.6C15.0177 12.6 12.6 15.0177 12.6 18C12.6 20.9823 15.0177 23.4 18 23.4Z" fill="var(--fill-0, white)"/>
<path id="Vector_3" d="M18 20.7C19.4912 20.7 20.7 19.4912 20.7 18C20.7 16.5088 19.4912 15.3 18 15.3C16.5088 15.3 15.3 16.5088 15.3 18C15.3 19.4912 16.5088 20.7 18 20.7Z" fill="var(--fill-0, #1E1E22)"/>
<path id="Vector_4" d="M18 1.8V4.5" stroke="var(--stroke-0, white)" stroke-width="1.8" stroke-linecap="round"/>
<path id="Vector_5" d="M27 4.5L25.2 6.3" stroke="var(--stroke-0, white)" stroke-width="1.8" stroke-linecap="round"/>
<path id="Vector_6" d="M9 4.5L10.8 6.3" stroke="var(--stroke-0, white)" stroke-width="1.8" stroke-linecap="round"/>
</g>
</svg>
